# xmcd
#
# Track frame offsets:
#	182
#	12340
#	23240
#	33987
#	43207
#	53412
#	69690
#	86945
#	100535
#	119847
#	134187
#	148140
#	157972
#	168607
#	178312
#	192380
#	204650
#	223670
#	241592
#
# Disc length: 3786 seconds
#
# Revision: 1
# Processed by: cddbd v1.5.1PL0 Copyright (c) Steve Scherf et al.
# Submitted via: audiograbber 1.83.01
#
DISCID=210ec813
DTITLE=Various Artist - Big Rig Blues Disc 2 of 2
DYEAR=1970
DGENRE=Country
TTITLE0=Ole Slewfoot - 01 - Unknown
TTITLE1=I Thought I Heard You Calling My Name - 02 - Emerson
TTITLE2=Sugarfoot Rag - 03 - Unknown
TTITLE3=Lousiana Saturday Night - 04 - Unknown
TTITLE4=Satisfied Mind - 05 - Henry E Noe
TTITLE5=Y'all Come - 06 - Arlie Duff
TTITLE6=Whiskey River - 07 - Stroud/Shinn
TTITLE7=Mexican Rose - 08 - Stone/Tenney
TTITLE8=Secret Love - 09 - Fain/Webster
TTITLE9=Jambalaya - 10 - Williams
TTITLE10=The Rains Come - 11 - Huey Meaux
TTITLE11=Before The Next Teardrop Falls - 12 - Vivian/Keith/Bet Peters
TTITLE12=Wasted Days And Wasted Nights - 13 - F Fender/B Peters
TTITLE13=White Freight Liner Blues - 14 - T Van Zandt
TTITLE14=1960 Hits Medley - 15 - Various
TTITLE15=Tequila Sheila - 16 - S Silverstein/M Davis
TTITLE16=Marie Laveau - 17 - Unknown
TTITLE17=Hobo Heaven - 18 - Various
TTITLE18=Hank Williams Medley - 19 - Hank Williams
EXTD=
EXTT0=
EXTT1=
EXTT2=
EXTT3=
EXTT4=
EXTT5=
EXTT6=
EXTT7=
EXTT8=
EXTT9=
EXTT10=
EXTT11=
EXTT12=
EXTT13=
EXTT14=
EXTT15=
EXTT16=
EXTT17=
EXTT18=
PLAYORDER=
